<?xml version="1.0" standalone="no"?>
<!DOCTYPE svg PUBLIC "-//W3C//DTD SVG 20010904//EN"
 "http://www.w3.org/TR/2001/REC-SVG-20010904/DTD/svg10.dtd">
<svg version="1.0" xmlns="http://www.w3.org/2000/svg"
 width="1024.000000pt" height="1024.000000pt" viewBox="0 0 1024.000000 1024.000000"
 preserveAspectRatio="xMidYMid meet">
<metadata>
Created by potrace 1.14, written by Peter Selinger 2001-2017
</metadata>
<g transform="translate(0.000000,1024.000000) scale(0.100000,-0.100000)"
fill="#000000" stroke="none">
<path d="M1095 10235 c-5 -1 -37 -11 -70 -21 -56 -16 -132 -53 -162 -78 -116
-96 -186 -206 -212 -331 -11 -51 -11 -9364 -1 -9395 3 -8 8 -17 12 -20 4 -3 9
-15 11 -25 6 -33 40 -100 72 -142 26 -34 105 -113 113 -113 5 0 15 -7 22 -15
14 -17 100 -60 112 -57 5 1 8 -2 8 -6 0 -4 8 -8 18 -9 9 -1 40 -7 68 -12 67
-15 7902 -11 7924 4 8 5 24 11 34 12 11 2 51 20 89 41 130 70 236 211 270 357
12 51 13 595 12 3440 -2 1859 -5 3396 -8 3415 -11 62 -34 156 -55 225 -16 50
-73 189 -83 201 -5 6 -7 13 -4 16 3 3 -1 11 -10 18 -8 7 -15 18 -15 25 0 14
-98 172 -135 218 -42 51 -1854 1864 -1920 1921 -33 28 -61 54 -63 59 -2 4 -8
7 -14 7 -5 0 -28 13 -51 28 -59 40 -277 149 -307 154 -8 1 -28 7 -47 15 -29
10 -35 12 -113 33 -41 11 -91 23 -110 27 -33 7 -5364 15 -5385 8z m4666 -767
c3 -21 2 -38 -3 -38 -5 0 -6 -5 -3 -10 5 -9 7 -69 3 -145 0 -5 0 -23 1 -40 1
-16 1 -38 1 -47 -1 -18 -1 -113 -1 -143 0 -8 1 -42 1 -75 0 -71 0 -86 1 -102
0 -7 0 -24 0 -38 -1 -14 -1 -32 0 -40 0 -8 0 -26 0 -40 -1 -14 -1 -32 0 -40 0
-8 0 -26 0 -40 -1 -14 -1 -32 0 -40 0 -8 0 -26 0 -40 -1 -14 -1 -32 0 -40 0
-8 0 -26 0 -40 -1 -14 -1 -32 0 -40 0 -8 0 -27 0 -42 -1 -16 -1 -38 -1 -50 0
-13 -2 -32 -3 -42 -2 -11 -1 -37 3 -58 4 -21 4 -41 0 -43 -4 -3 -4 -21 0 -40
4 -19 4 -35 0 -35 -4 0 -4 -16 0 -35 4 -19 5 -37 0 -40 -4 -2 -4 -25 0 -50 4
-25 4 -45 1 -45 -7 0 -5 -84 2 -103 2 -6 1 -21 -3 -32 -4 -11 -4 -31 0 -45 4
-14 4 -34 0 -45 -4 -11 -4 -29 0 -41 5 -11 5 -26 0 -33 -4 -7 -4 -28 0 -47 4
-19 5 -36 0 -39 -4 -2 -4 -25 0 -50 4 -25 4 -45 1 -45 -3 0 -5 -24 -3 -52 2
-29 3 -60 3 -68 -1 -8 -1 -28 0 -45 0 -16 0 -36 0 -42 0 -7 -1 -24 -1 -38 0
-14 1 -31 1 -37 0 -7 0 -26 0 -43 -1 -16 -1 -38 -1 -47 0 -10 0 -24 0 -30 -1
-11 6 -63 14 -108 9 -46 71 -174 103 -209 93 -104 151 -144 283 -192 28 -10
293 -13 1271 -14 680 -1 1240 -4 1245 -8 7 -4 13 -5804 5 -5838 0 -4 -1645 -7
-3655 -7 l-3654 0 0 4382 c0 2409 2 4384 4 4387 2 4 988 6 2191 5 l2188 -1 6
-37z m849 -55 c73 -35 97 -58 993 -952 505 -504 933 -939 952 -967 19 -28 35
-58 35 -68 0 -9 4 -16 9 -16 10 0 41 -89 32 -93 -3 -2 -485 -3 -1071 -3
l-1065 1 -1 1073 -2 1073 22 -7 c11 -3 55 -22 96 -41z"/>
</g>
</svg>
